<?xml version="1.0" encoding="utf-8"?>
<!-- Generator: Adobe Illustrator 19.0.0, SVG Export Plug-In . SVG Version: 6.00 Build 0)  -->
<svg version="1.1" id="Layer_1" xmlns="http://www.w3.org/2000/svg" xmlns:xlink="http://www.w3.org/1999/xlink" x="0px" y="0px"
	 viewBox="0 0 96 96" style="enable-background:new 0 0 96 96;" xml:space="preserve">
<style type="text/css">
	.st0{fill:#333333;}
</style>
<g id="XMLID_2_">
	<path id="XMLID_7_" class="st0" d="M48,32.4C30,32.4,15.5,45.6,15.5,48c0,2.4,14.5,15.6,32.5,15.6c17.9,0,32.5-13.2,32.5-15.6
		C80.5,45.6,65.9,32.4,48,32.4z M41.2,37.9c-1.9,1.8-3.1,4.3-3.1,7.1c0,5.4,4.4,9.9,9.8,9.9c5.4,0,9.9-4.4,9.9-9.9
		c0-2.8-1.2-5.3-3.1-7.1c5.2,1.1,9.9,3.2,13.7,5.5c2.6,1.6,4.8,3.3,6.1,4.6c-1.3,1.3-3.5,3-6.1,4.6c-5.3,3.3-12.7,6.2-20.5,6.2
		c-7.8,0-15.1-3-20.4-6.2c-2.6-1.6-4.8-3.3-6.1-4.6c1.3-1.3,3.5-3,6.1-4.6C31.3,41.1,36,39,41.2,37.9z M50.2,38.9
		c2.2,0,4.1,1.8,4.1,4c0,2.2-1.8,4.1-4.1,4.1c-2.2,0-4-1.8-4-4.1C46.1,40.6,47.9,38.9,50.2,38.9z"/>
</g>
</svg>
